<?xml version="1.0" encoding="UTF-8"?>
<svg width="24" height="24" viewBox="0 0 24 24" fill="none" xmlns="http://www.w3.org/2000/svg">
  <path d="M12 2C6.477 2 2 6.477 2 12C2 16.418 4.865 20.166 8.839 21.489C9.339 21.581 9.521 21.277 9.521 21.017C9.521 20.781 9.512 20.044 9.508 19.204C6.726 19.864 6.139 17.777 6.139 17.777C5.685 16.567 5.029 16.278 5.029 16.278C4.121 15.682 5.097 15.691 5.097 15.691C6.101 15.758 6.629 16.717 6.629 16.717C7.521 18.116 8.97 17.776 9.539 17.517C9.631 16.817 9.889 16.401 10.175 16.146C7.954 15.885 5.62 15.064 5.62 11.477C5.62 10.386 6.009 9.488 6.649 8.793C6.546 8.541 6.203 7.523 6.747 6.147C6.747 6.147 7.586 5.882 9.497 7.164C10.2999 6.94893 11.15 6.84046 12 6.842C12.85 6.84046 13.7001 6.94893 14.503 7.164C16.414 5.882 17.251 6.147 17.251 6.147C17.797 7.523 17.454 8.541 17.351 8.793C17.991 9.488 18.378 10.386 18.378 11.477C18.378 15.075 16.041 15.883 13.813 16.14C14.172 16.461 14.491 17.039 14.491 17.921C14.491 19.161 14.479 20.145 14.479 21.017C14.479 21.277 14.659 21.583 15.167 21.481C19.137 20.161 22 16.416 22 12C22 6.477 17.523 2 12 2Z" fill="currentColor"/>
</svg> 